# xmcd
#
# Track frame offsets: 
#        150
#        40534
#        83517
#        119126
#        152967
#        188089
#        232559
#        264668
#
# Disc length: 3990 seconds
#
# Revision: 4
# Processed by: cddbd v1.5.2PL0 Copyright (c) Steve Scherf et al.
# Submitted via: ExactAudioCopy v0.99pb3
#
DISCID=590f9408
DTITLE=Delerium - Odyssey [2]
DYEAR=2001
DGENRE=Ambient
TTITLE0=Heaven's Earth [Matt Darey remix]
TTITLE1=Silence [Fade's Sanctuary mix]
TTITLE2=Duende [Spiritual Collapse mix]
TTITLE3=Incantation [12" mix edit]
TTITLE4=Underwater [MaUVe's Dark Vocal mix]
TTITLE5=Innocente [Mr SAM's The Space Between Us mix]
TTITLE6=Silence [Michael Woods mix]
TTITLE7=Flowers Become Screens [Frequency Modulation mix]
EXTD=YEAR: 2001
EXTT0=
EXTT1=
EXTT2=
EXTT3=
EXTT4=
EXTT5=
EXTT6=
EXTT7=
PLAYORDER=
